# xmcd
#
# Track frame offsets: 
#        150
#        22510
#        39400
#        54533
#        77839
#        103205
#        116695
#
# Disc length: 1758 seconds
#
# Revision: 1
# Processed by: cddbd v1.5.2PL0 Copyright (c) Steve Scherf et al.
# Submitted via: ExactAudioCopy v0.95b4
#
DISCID=4d06dc07
DTITLE=Various Artist - X-Mix Urban Series Issue 54
DYEAR=1900
DGENRE=Hip-Hop
TTITLE0=Truth Hurts Feat. Rakim - Addictive (X-Mix)
TTITLE1=Busta Rhymes feat. P. Diddy and Pharrell - Pass the courvoisier 
TTITLE1=(Intro and Part 1)
TTITLE2=Busta Rhymes feat. P. Diddy and Pharrell - Pass the courvoisier 
TTITLE2=(Part 2 and Outro)
TTITLE3=Jennifer Lopez Feat. Nas - I'm gonna Be Alright (X-Mix)
TTITLE4=Thicke - When I Get You Alone (X-Mix)
TTITLE5=Jermaine Dupri and Ludacris - Welcome to Atlanta (Intro and Part 1
TTITLE5=)
TTITLE6=Jermaine Dupri and Ludacris - Welcome to Atlanta (Part 2 and Outro
TTITLE6=)
EXTD=
EXTT0=99 BPM
EXTT1=98 BPM
EXTT2=98 BPM
EXTT3=94 BPM
EXTT4=107 BPM
EXTT5=96 BPM
EXTT6=96 BPM
PLAYORDER=
